<svg width="150" height="150" xmlns="http://www.w3.org/2000/svg" xmlns:xlink="http://www.w3.org/1999/xlink" viewBox="0 0 131.61393 131.61393"><defs><clipPath id="clip-path"><path d="M63.35222,89.43018S69.13286,77.86891,79.249,86.53987l-7.22579,4.33547Z" style="fill:none"/></clipPath></defs><g id="Camada_2" data-name="Camada 2"><g id="Layer_1" data-name="Layer 1"><circle cx="65.80696" cy="65.80696" r="65.80696" style="fill:#5fa8ff"/><path d="M57.57159,77.86891C60.4619,76.42375,63.5133,76.838,67.6877,76.42375c4.00033-.397,8.67095-1.44516,10.11611-1.44516,3.23147,0,1.44516,13.00643-7.22579,14.45159S53.69382,79.8078,57.57159,77.86891Z" style="fill:#070c10"/><g style="clip-path:url(#clip-path)"><path d="M57.57159,77.86891C60.4619,76.42375,63.5133,76.838,67.6877,76.42375c4.00033-.397,8.67095-1.44516,10.11611-1.44516,3.23147,0,1.44516,13.00643-7.22579,14.45159S53.69382,79.8078,57.57159,77.86891Z" style="fill:#e25a40"/></g><circle cx="45.90599" cy="56.05658" r="10.67643" style="fill:#fff"/><path d="M44.8306,50.22091a5.88071,5.88071,0,0,0-.82358.23709,3.54076,3.54076,0,0,1-4.019,5.80529,5.91832,5.91832,0,1,0,4.84263-6.04238Z" style="fill:#070c10"/><circle cx="47.07566" cy="55.24401" r="1.16947" style="fill:#fff"/><circle cx="85.70794" cy="56.05658" r="10.67643" style="fill:#fff"/><path d="M84.63255,50.22091a5.88071,5.88071,0,0,0-.82358.23709,3.54076,3.54076,0,0,1-4.01905,5.80529,5.91832,5.91832,0,1,0,4.84263-6.04238Z" style="fill:#070c10"/><circle cx="86.87761" cy="55.24401" r="1.16947" style="fill:#fff"/><path d="M35.2277,45.76611s3.5448-7.0896,12.4068-4.431" style="fill:none;stroke:#070c10;stroke-linecap:round;stroke-miterlimit:10"/><path d="M75.02966,45.76611s3.54479-7.0896,12.40679-4.431" style="fill:none;stroke:#070c10;stroke-linecap:round;stroke-miterlimit:10"/></g></g></svg>