<svg width="150" height="150" xmlns="http://www.w3.org/2000/svg" xmlns:xlink="http://www.w3.org/1999/xlink" viewBox="0 0 136.75826 136.75826"><defs><clipPath id="clip-path"><path d="M65.968,92.00235S71.74863,80.44108,81.86474,89.112l-7.22579,4.33548Z" style="fill:none"/></clipPath></defs><g id="Camada_2" data-name="Camada 2"><g id="Layer_1" data-name="Layer 1"><rect width="136.75826" height="136.75826" style="fill:#f9e448"/><rect x="7.69452" y="7.69452" width="121.36923" height="121.36923" style="fill:none;stroke:#fff;stroke-miterlimit:10;stroke-width:5px"/><path d="M60.18736,80.44108c2.89032-1.44516,5.94171-1.03093,10.11611-1.44516,4.00033-.397,8.67095-1.44516,10.11611-1.44516,3.23148,0,1.44516,13.00643-7.22579,14.45159S56.30959,82.38,60.18736,80.44108Z" style="fill:#070c10"/><g style="clip-path:url(#clip-path)"><path d="M60.18736,80.44108c2.89032-1.44516,5.94171-1.03093,10.11611-1.44516,4.00033-.397,8.67095-1.44516,10.11611-1.44516,3.23148,0,1.44516,13.00643-7.22579,14.45159S56.30959,82.38,60.18736,80.44108Z" style="fill:#e25a40"/></g><circle cx="48.52176" cy="58.62875" r="10.67643" style="fill:#fff"/><path d="M47.44637,52.79307a5.87938,5.87938,0,0,0-.82358.2371,3.54076,3.54076,0,0,1-4.019,5.80529,5.91832,5.91832,0,1,0,4.84263-6.04239Z" style="fill:#070c10"/><circle cx="49.69143" cy="57.81617" r="1.16947" style="fill:#fff"/><circle cx="88.32371" cy="58.62875" r="10.67643" style="fill:#fff"/><path d="M87.24832,52.79307a5.87938,5.87938,0,0,0-.82358.2371,3.54076,3.54076,0,0,1-4.019,5.80529,5.91832,5.91832,0,1,0,4.84263-6.04239Z" style="fill:#070c10"/><circle cx="89.49338" cy="57.81617" r="1.16947" style="fill:#fff"/><path d="M37.84348,48.33828s3.54479-7.0896,12.40679-4.431" style="fill:none;stroke:#070c10;stroke-linecap:round;stroke-miterlimit:10"/><path d="M77.64543,48.33828s3.54479-7.0896,12.40679-4.431" style="fill:none;stroke:#070c10;stroke-linecap:round;stroke-miterlimit:10"/></g></g></svg>