<svg width="100" height="100" xmlns="http://www.w3.org/2000/svg" xmlns:xlink="http://www.w3.org/1999/xlink" viewBox="0 0 136.75826 136.75826"><defs><clipPath id="clip-path"><path d="M63.46965,92.00235S69.25028,80.44108,79.36639,89.112L72.1406,93.44751Z" style="fill:none"/></clipPath></defs><g id="Camada_2" data-name="Camada 2"><g id="Layer_1" data-name="Layer 1"><rect width="136.75826" height="136.75826" style="fill:#f97e78"/><path d="M57.689,80.44108c2.89032-1.44516,5.94172-1.03093,10.11611-1.44516,4.00033-.397,8.671-1.44516,10.11612-1.44516,3.23147,0,1.44515,13.00643-7.2258,14.45159S53.81124,82.38,57.689,80.44108Z" style="fill:#070c10"/><g style="clip-path:url(#clip-path)"><path d="M57.689,80.44108c2.89032-1.44516,5.94172-1.03093,10.11611-1.44516,4.00033-.397,8.671-1.44516,10.11612-1.44516,3.23147,0,1.44515,13.00643-7.2258,14.45159S53.81124,82.38,57.689,80.44108Z" style="fill:#e25a40"/></g><circle cx="46.02341" cy="58.62875" r="10.67643" style="fill:#fff"/><path d="M44.948,52.79307a5.87977,5.87977,0,0,0-.82358.2371,3.54076,3.54076,0,0,1-4.019,5.80529A5.91832,5.91832,0,1,0,44.948,52.79307Z" style="fill:#070c10"/><circle cx="47.19308" cy="57.81617" r="1.16947" style="fill:#fff"/><circle cx="85.82536" cy="58.62875" r="10.67643" style="fill:#fff"/><path d="M84.75,52.79307a5.87977,5.87977,0,0,0-.82358.2371,3.54076,3.54076,0,0,1-4.019,5.80529A5.91832,5.91832,0,1,0,84.75,52.79307Z" style="fill:#070c10"/><circle cx="86.99503" cy="57.81617" r="1.16947" style="fill:#fff"/><path d="M35.34513,48.33828s3.5448-7.0896,12.40679-4.431" style="fill:none;stroke:#070c10;stroke-linecap:round;stroke-miterlimit:10"/><path d="M75.14708,48.33828s3.5448-7.0896,12.40679-4.431" style="fill:none;stroke:#070c10;stroke-linecap:round;stroke-miterlimit:10"/></g></g></svg>