<svg width="100" height="100" xmlns="http://www.w3.org/2000/svg" xmlns:xlink="http://www.w3.org/1999/xlink" viewBox="0 0 136.75826 136.75826"><defs><clipPath id="clip-path"><path d="M65.92439,92.00235S71.705,80.44108,81.82114,89.112l-7.2258,4.33548Z" style="fill:none"/></clipPath></defs><g id="Camada_2" data-name="Camada 2"><g id="Layer_1" data-name="Layer 1"><rect width="136.75826" height="136.75826" style="fill:#5fa8ff"/><rect x="7.69452" y="7.69452" width="121.36923" height="121.36923" style="fill:none;stroke:#fff;stroke-miterlimit:10;stroke-width:5px"/><path d="M60.14375,80.44108c2.89032-1.44516,5.94172-1.03093,10.11611-1.44516,4.00033-.397,8.671-1.44516,10.11612-1.44516,3.23147,0,1.44516,13.00643-7.2258,14.45159S56.266,82.38,60.14375,80.44108Z" style="fill:#070c10"/><g style="clip-path:url(#clip-path)"><path d="M60.14375,80.44108c2.89032-1.44516,5.94172-1.03093,10.11611-1.44516,4.00033-.397,8.671-1.44516,10.11612-1.44516,3.23147,0,1.44516,13.00643-7.2258,14.45159S56.266,82.38,60.14375,80.44108Z" style="fill:#e25a40"/></g><circle cx="48.47815" cy="58.62875" r="10.67643" style="fill:#fff"/><path d="M47.40276,52.79307a5.87925,5.87925,0,0,0-.82357.2371,3.54076,3.54076,0,0,1-4.019,5.80529,5.91832,5.91832,0,1,0,4.84262-6.04239Z" style="fill:#070c10"/><circle cx="49.64782" cy="57.81617" r="1.16947" style="fill:#fff"/><circle cx="88.2801" cy="58.62875" r="10.67643" style="fill:#fff"/><path d="M87.20471,52.79307a5.87925,5.87925,0,0,0-.82357.2371,3.54076,3.54076,0,0,1-4.01905,5.80529,5.91832,5.91832,0,1,0,4.84262-6.04239Z" style="fill:#070c10"/><circle cx="89.44977" cy="57.81617" r="1.16947" style="fill:#fff"/><path d="M37.79987,48.33828s3.5448-7.0896,12.4068-4.431" style="fill:none;stroke:#070c10;stroke-linecap:round;stroke-miterlimit:10"/><path d="M77.60182,48.33828s3.5448-7.0896,12.4068-4.431" style="fill:none;stroke:#070c10;stroke-linecap:round;stroke-miterlimit:10"/></g></g></svg>