<svg width="90" height="150" xmlns="http://www.w3.org/2000/svg" xmlns:xlink="http://www.w3.org/1999/xlink" viewBox="0 0 94.01931 156.53635"><defs><clipPath id="clip-path"><path d="M44.49361,112.41445s5.78064-11.56127,15.89675-2.89032l-7.2258,4.33548Z" style="fill:none"/></clipPath></defs><g id="Camada_2" data-name="Camada 2"><g id="Layer_1" data-name="Layer 1"><rect width="94.01931" height="156.53635" style="fill:#f97e78"/><rect x="7.28955" y="6.95161" width="79.52742" height="142.86478" style="fill:none;stroke:#fff;stroke-miterlimit:10;stroke-width:5px"/><path d="M38.713,100.85318c2.89032-1.44516,5.94172-1.03093,10.11612-1.44516,4.00032-.39695,8.67095-1.44516,10.11611-1.44516,3.23147,0,1.44516,13.00643-7.2258,14.45159S34.83521,102.79206,38.713,100.85318Z" style="fill:#070c10"/><g style="clip-path:url(#clip-path)"><path d="M38.713,100.85318c2.89032-1.44516,5.94172-1.03093,10.11612-1.44516,4.00032-.39695,8.67095-1.44516,10.11611-1.44516,3.23147,0,1.44516,13.00643-7.2258,14.45159S34.83521,102.79206,38.713,100.85318Z" style="fill:#e25a40"/></g><circle cx="27.04738" cy="79.04085" r="10.67643" style="fill:#fff"/><path d="M25.972,73.20517a5.87964,5.87964,0,0,0-.82357.2371,3.54076,3.54076,0,0,1-4.019,5.80529A5.91832,5.91832,0,1,0,25.972,73.20517Z" style="fill:#070c10"/><circle cx="28.21705" cy="78.22828" r="1.16947" style="fill:#fff"/><circle cx="66.84933" cy="79.04085" r="10.67643" style="fill:#fff"/><path d="M65.77393,73.20517a5.87964,5.87964,0,0,0-.82357.2371,3.54076,3.54076,0,0,1-4.019,5.80529,5.91832,5.91832,0,1,0,4.84262-6.04239Z" style="fill:#070c10"/><circle cx="68.019" cy="78.22828" r="1.16947" style="fill:#fff"/><path d="M16.36909,68.75038s3.5448-7.0896,12.4068-4.431" style="fill:none;stroke:#070c10;stroke-linecap:round;stroke-miterlimit:10"/><path d="M56.171,68.75038s3.5448-7.0896,12.4068-4.431" style="fill:none;stroke:#070c10;stroke-linecap:round;stroke-miterlimit:10"/></g></g></svg>