<svg width="60" height="100" xmlns="http://www.w3.org/2000/svg" xmlns:xlink="http://www.w3.org/1999/xlink" viewBox="0 0 94.01931 156.53635"><defs><clipPath id="clip-path"><path d="M44.55491,112.41445s5.78064-11.56127,15.89675-2.89032l-7.22579,4.33548Z" style="fill:none"/></clipPath></defs><g id="Camada_2" data-name="Camada 2"><g id="Layer_1" data-name="Layer 1"><rect width="94.01931" height="156.53635" style="fill:#5fa8ff"/><rect x="7.28955" y="6.95161" width="79.52742" height="142.86478" style="fill:none;stroke:#fff;stroke-miterlimit:10;stroke-width:5px"/><path d="M38.77428,100.85318C41.6646,99.408,44.716,99.82225,48.89039,99.408c4.00033-.39695,8.671-1.44516,10.11611-1.44516,3.23148,0,1.44516,13.00643-7.22579,14.45159S34.89651,102.79206,38.77428,100.85318Z" style="fill:#070c10"/><g style="clip-path:url(#clip-path)"><path d="M38.77428,100.85318C41.6646,99.408,44.716,99.82225,48.89039,99.408c4.00033-.39695,8.671-1.44516,10.11611-1.44516,3.23148,0,1.44516,13.00643-7.22579,14.45159S34.89651,102.79206,38.77428,100.85318Z" style="fill:#e25a40"/></g><circle cx="27.10868" cy="79.04085" r="10.67643" style="fill:#fff"/><path d="M26.03329,73.20517a5.87938,5.87938,0,0,0-.82358.2371,3.54076,3.54076,0,0,1-4.019,5.80529,5.91832,5.91832,0,1,0,4.84263-6.04239Z" style="fill:#070c10"/><circle cx="28.27835" cy="78.22828" r="1.16947" style="fill:#fff"/><circle cx="66.91063" cy="79.04085" r="10.67643" style="fill:#fff"/><path d="M65.83524,73.20517a5.87938,5.87938,0,0,0-.82358.2371,3.54076,3.54076,0,0,1-4.01905,5.80529,5.91832,5.91832,0,1,0,4.84263-6.04239Z" style="fill:#070c10"/><circle cx="68.0803" cy="78.22828" r="1.16947" style="fill:#fff"/><path d="M16.4304,68.75038s3.5448-7.0896,12.40679-4.431" style="fill:none;stroke:#070c10;stroke-linecap:round;stroke-miterlimit:10"/><path d="M56.23235,68.75038s3.5448-7.0896,12.40679-4.431" style="fill:none;stroke:#070c10;stroke-linecap:round;stroke-miterlimit:10"/></g></g></svg>