<svg width="100" height="100" xmlns="http://www.w3.org/2000/svg" xmlns:xlink="http://www.w3.org/1999/xlink" viewBox="0 0 148.71331 136.50014"><defs><clipPath id="clip-path"><path d="M71.90191,116.94167s5.78064-11.56128,15.89675-2.89032l-7.22579,4.33547Z" style="fill:none"/></clipPath></defs><g id="Camada_2" data-name="Camada 2"><g id="Layer_1" data-name="Layer 1"><polyline points="0 136.5 73.997 0 148.713 136.5 0 136.5" style="fill:#f9e448"/><path d="M66.12128,105.38039c2.89031-1.44515,5.94171-1.03093,10.11611-1.44515,4.00033-.397,8.67095-1.44516,10.11611-1.44516,3.23147,0,1.44516,13.00643-7.22579,14.45159S62.24351,107.31928,66.12128,105.38039Z" style="fill:#070c10"/><g style="clip-path:url(#clip-path)"><path d="M66.12128,105.38039c2.89031-1.44515,5.94171-1.03093,10.11611-1.44515,4.00033-.397,8.67095-1.44516,10.11611-1.44516,3.23147,0,1.44516,13.00643-7.22579,14.45159S62.24351,107.31928,66.12128,105.38039Z" style="fill:#e25a40"/></g><circle cx="54.45568" cy="83.56807" r="10.67643" style="fill:#fff"/><path d="M53.38029,77.73239a5.88071,5.88071,0,0,0-.82358.23709,3.54077,3.54077,0,0,1-4.019,5.8053,5.91832,5.91832,0,1,0,4.84263-6.04239Z" style="fill:#070c10"/><circle cx="55.62535" cy="82.75549" r="1.16947" style="fill:#fff"/><circle cx="94.25763" cy="83.56807" r="10.67643" style="fill:#fff"/><path d="M93.18224,77.73239a5.88071,5.88071,0,0,0-.82358.23709,3.54077,3.54077,0,0,1-4.01905,5.8053,5.91832,5.91832,0,1,0,4.84263-6.04239Z" style="fill:#070c10"/><circle cx="95.4273" cy="82.75549" r="1.16947" style="fill:#fff"/><path d="M43.77739,73.27759s3.5448-7.08959,12.4068-4.431" style="fill:none;stroke:#070c10;stroke-linecap:round;stroke-miterlimit:10"/><path d="M83.57934,73.27759s3.5448-7.08959,12.4068-4.431" style="fill:none;stroke:#070c10;stroke-linecap:round;stroke-miterlimit:10"/></g></g></svg>